<svg width="500" height="200" viewBox="0 0 500 200" fill="none" xmlns="http://www.w3.org/2000/svg">
<path fill-rule="evenodd" clip-rule="evenodd" d="M1.84046 9.21181C0 12.8207 0 17.5451 0 26.9938C0 36.4426 0 41.1669 1.84046 44.7759C3.45937 47.9504 6.04259 50.5313 9.21989 52.1488C12.832 53.9877 17.5605 53.9877 27.0175 53.9877H60.508C69.965 53.9877 74.6935 53.9877 78.3056 52.1488C81.4829 50.5313 84.0661 47.9504 85.685 44.7759C87.5255 41.1669 87.5255 36.4426 87.5255 26.9938C87.5255 17.5451 87.5255 12.8207 85.685 9.21181C84.0661 6.0373 81.4829 3.45634 78.3056 1.83885C74.6935 0 69.965 0 60.508 0H27.0175C17.5605 0 12.832 0 9.21989 1.83885C6.04259 3.45634 3.45937 6.0373 1.84046 9.21181ZM26.9487 37.0685C27.5166 37.2282 28.0057 37.611 28.2479 38.1485L28.248 38.1488C28.6246 38.9847 28.8129 39.4028 28.8544 39.5373C29.3172 41.0388 28.5435 42.2458 26.9929 42.4415C26.8539 42.4591 26.496 42.4591 25.7802 42.4591C21.0908 42.4591 18.746 42.4591 16.9549 41.5411C15.3794 40.7336 14.0984 39.4451 13.2957 37.8604C12.383 36.0587 12.383 33.7003 12.383 28.9833V25.0044C12.383 20.2874 12.383 17.9289 13.2957 16.1273C14.0984 14.5425 15.3794 13.2541 16.9549 12.4466C18.746 11.5286 21.0908 11.5286 25.7802 11.5286C26.4961 11.5286 26.854 11.5286 26.993 11.5462C28.5436 11.7419 29.3172 12.9489 28.8545 14.4503C28.813 14.5849 28.6246 15.0032 28.2479 15.8392C28.0057 16.3767 27.5168 16.7594 26.9488 16.9192C23.6453 17.8482 21.143 20.6407 20.6369 24.1026C20.5446 24.7339 20.5446 25.4872 20.5446 26.9938C20.5446 28.5004 20.5446 29.2537 20.6369 29.8851C21.143 33.3469 23.6452 36.1394 26.9487 37.0685ZM59.2776 38.1485C59.5198 37.611 60.0088 37.2282 60.5768 37.0685C63.8802 36.1394 66.3825 33.3469 66.8886 29.8851C66.9809 29.2537 66.9809 28.5004 66.9809 26.9938C66.9809 25.4872 66.9809 24.7339 66.8886 24.1026C66.3825 20.6407 63.8802 17.8482 60.5766 16.9192C60.0087 16.7594 59.5197 16.3767 59.2776 15.8392C58.9009 15.003 58.7125 14.5849 58.671 14.4503C58.2083 12.9489 58.9819 11.7419 60.5325 11.5462C60.6715 11.5286 61.0294 11.5286 61.7452 11.5286C66.4347 11.5286 68.7794 11.5286 70.5706 12.4466C72.1461 13.2541 73.427 14.5425 74.2298 16.1273C75.1425 17.9289 75.1425 20.2874 75.1425 25.0044V28.9833C75.1425 33.7003 75.1425 36.0587 74.2298 37.8604C73.427 39.4451 72.1461 40.7336 70.5706 41.5411C68.7794 42.4591 66.4347 42.4591 61.7452 42.4591C61.0295 42.4591 60.6716 42.4591 60.5326 42.4415C58.982 42.2458 58.2083 41.0388 58.6711 39.5373C58.7126 39.4028 58.9007 38.9851 59.2771 38.1497L59.2775 38.1488L59.2776 38.1485Z" fill="white" fill-opacity="0.1"/>
<path fill-rule="evenodd" clip-rule="evenodd" d="M104.921 9.21181C103.08 12.8207 103.08 17.5451 103.08 26.9938C103.08 36.4426 103.08 41.1669 104.921 44.7759C106.539 47.9504 109.123 50.5313 112.3 52.1488C115.912 53.9877 120.641 53.9877 130.098 53.9877H163.588C173.045 53.9877 177.774 53.9877 181.386 52.1488C184.563 50.5313 187.146 47.9504 188.765 44.7759C190.606 41.1669 190.606 36.4426 190.606 26.9938C190.606 17.5451 190.606 12.8207 188.765 9.21181C187.146 6.0373 184.563 3.45634 181.386 1.83885C177.774 0 173.045 0 163.588 0H130.098C120.641 0 115.912 0 112.3 1.83885C109.123 3.45634 106.539 6.0373 104.921 9.21181ZM130.029 37.0685C130.597 37.2282 131.086 37.611 131.328 38.1485L131.328 38.1488C131.705 38.9847 131.893 39.4028 131.934 39.5373C132.397 41.0388 131.624 42.2458 130.073 42.4415C129.934 42.4591 129.576 42.4591 128.86 42.4591C124.171 42.4591 121.826 42.4591 120.035 41.5411C118.459 40.7336 117.179 39.4451 116.376 37.8604C115.463 36.0587 115.463 33.7003 115.463 28.9833V25.0044C115.463 20.2874 115.463 17.9289 116.376 16.1273C117.179 14.5425 118.459 13.2541 120.035 12.4466C121.826 11.5286 124.171 11.5286 128.86 11.5286C129.576 11.5286 129.934 11.5286 130.073 11.5462C131.624 11.7419 132.397 12.9489 131.935 14.4503C131.893 14.5849 131.705 15.0032 131.328 15.8392C131.086 16.3767 130.597 16.7594 130.029 16.9192C126.725 17.8482 124.223 20.6407 123.717 24.1026C123.625 24.7339 123.625 25.4872 123.625 26.9938C123.625 28.5004 123.625 29.2537 123.717 29.8851C124.223 33.3469 126.725 36.1394 130.029 37.0685ZM162.358 38.1485C162.6 37.611 163.089 37.2282 163.657 37.0685C166.96 36.1394 169.463 33.3469 169.969 29.8851C170.061 29.2537 170.061 28.5004 170.061 26.9938C170.061 25.4872 170.061 24.7339 169.969 24.1026C169.463 20.6407 166.96 17.8482 163.657 16.9192C163.089 16.7594 162.6 16.3767 162.358 15.8392C161.981 15.003 161.793 14.5849 161.751 14.4503C161.288 12.9489 162.062 11.7419 163.613 11.5462C163.752 11.5286 164.109 11.5286 164.825 11.5286C169.515 11.5286 171.86 11.5286 173.651 12.4466C175.226 13.2541 176.507 14.5425 177.31 16.1273C178.223 17.9289 178.223 20.2874 178.223 25.0044V28.9833C178.223 33.7003 178.223 36.0587 177.31 37.8604C176.507 39.4451 175.226 40.7336 173.651 41.5411C171.86 42.4591 169.515 42.4591 164.825 42.4591C164.11 42.4591 163.752 42.4591 163.613 42.4415C162.062 42.2458 161.288 41.0388 161.751 39.5373C161.793 39.4028 161.981 38.9851 162.357 38.1497L162.358 38.1488L162.358 38.1485Z" fill="white" fill-opacity="0.1"/>
<path fill-rule="evenodd" clip-rule="evenodd" d="M208.005 9.21181C206.164 12.8207 206.164 17.5451 206.164 26.9938C206.164 36.4426 206.164 41.1669 208.005 44.7759C209.623 47.9504 212.207 50.5313 215.384 52.1488C218.996 53.9877 223.725 53.9877 233.182 53.9877H266.672C276.129 53.9877 280.858 53.9877 284.47 52.1488C287.647 50.5313 290.23 47.9504 291.849 44.7759C293.69 41.1669 293.69 36.4426 293.69 26.9938C293.69 17.5451 293.69 12.8207 291.849 9.21181C290.23 6.0373 287.647 3.45634 284.47 1.83885C280.858 0 276.129 0 266.672 0H233.182C223.725 0 218.996 0 215.384 1.83885C212.207 3.45634 209.623 6.0373 208.005 9.21181ZM233.113 37.0685C233.681 37.2282 234.17 37.611 234.412 38.1485L234.412 38.1488C234.789 38.9847 234.977 39.4028 235.018 39.5373C235.481 41.0388 234.708 42.2458 233.157 42.4415C233.018 42.4591 232.66 42.4591 231.944 42.4591C227.255 42.4591 224.91 42.4591 223.119 41.5411C221.543 40.7336 220.262 39.4451 219.46 37.8604C218.547 36.0587 218.547 33.7003 218.547 28.9833V25.0044C218.547 20.2874 218.547 17.9289 219.46 16.1273C220.262 14.5425 221.543 13.2541 223.119 12.4466C224.91 11.5286 227.255 11.5286 231.944 11.5286C232.66 11.5286 233.018 11.5286 233.157 11.5462C234.708 11.7419 235.481 12.9489 235.019 14.4503C234.977 14.5849 234.789 15.0032 234.412 15.8392C234.17 16.3767 233.681 16.7594 233.113 16.9192C229.809 17.8482 227.307 20.6407 226.801 24.1026C226.709 24.7339 226.709 25.4872 226.709 26.9938C226.709 28.5004 226.709 29.2537 226.801 29.8851C227.307 33.3469 229.809 36.1394 233.113 37.0685ZM265.442 38.1485C265.684 37.611 266.173 37.2282 266.741 37.0685C270.044 36.1394 272.547 33.3469 273.053 29.8851C273.145 29.2537 273.145 28.5004 273.145 26.9938C273.145 25.4872 273.145 24.7339 273.053 24.1026C272.547 20.6407 270.044 17.8482 266.741 16.9192C266.173 16.7594 265.684 16.3767 265.442 15.8392C265.065 15.003 264.877 14.5849 264.835 14.4503C264.372 12.9489 265.146 11.7419 266.697 11.5462C266.836 11.5286 267.193 11.5286 267.909 11.5286C272.599 11.5286 274.943 11.5286 276.735 12.4466C278.31 13.2541 279.591 14.5425 280.394 16.1273C281.307 17.9289 281.307 20.2874 281.307 25.0044V28.9833C281.307 33.7003 281.307 36.0587 280.394 37.8604C279.591 39.4451 278.31 40.7336 276.735 41.5411C274.943 42.4591 272.599 42.4591 267.909 42.4591C267.194 42.4591 266.836 42.4591 266.697 42.4415C265.146 42.2458 264.372 41.0388 264.835 39.5373C264.877 39.4028 265.065 38.9851 265.441 38.1497L265.442 38.1488L265.442 38.1485Z" fill="white" fill-opacity="0.1"/>
<path fill-rule="evenodd" clip-rule="evenodd" d="M311.085 9.21181C309.244 12.8207 309.244 17.5451 309.244 26.9938C309.244 36.4426 309.244 41.1669 311.085 44.7759C312.704 47.9504 315.287 50.5313 318.464 52.1488C322.076 53.9877 326.805 53.9877 336.262 53.9877H369.752C379.209 53.9877 383.938 53.9877 387.55 52.1488C390.727 50.5313 393.31 47.9504 394.929 44.7759C396.77 41.1669 396.77 36.4426 396.77 26.9938C396.77 17.5451 396.77 12.8207 394.929 9.21181C393.31 6.0373 390.727 3.45634 387.55 1.83885C383.938 0 379.209 0 369.752 0H336.262C326.805 0 322.076 0 318.464 1.83885C315.287 3.45634 312.704 6.0373 311.085 9.21181ZM336.193 37.0685C336.761 37.2282 337.25 37.611 337.492 38.1485L337.492 38.1488C337.869 38.9847 338.057 39.4028 338.099 39.5373C338.561 41.0388 337.788 42.2458 336.237 42.4415C336.098 42.4591 335.74 42.4591 335.024 42.4591C330.335 42.4591 327.99 42.4591 326.199 41.5411C324.624 40.7336 323.343 39.4451 322.54 37.8604C321.627 36.0587 321.627 33.7003 321.627 28.9833V25.0044C321.627 20.2874 321.627 17.9289 322.54 16.1273C323.343 14.5425 324.624 13.2541 326.199 12.4466C327.99 11.5286 330.335 11.5286 335.024 11.5286C335.74 11.5286 336.098 11.5286 336.237 11.5462C337.788 11.7419 338.561 12.9489 338.099 14.4503C338.057 14.5849 337.869 15.0032 337.492 15.8392C337.25 16.3767 336.761 16.7594 336.193 16.9192C332.889 17.8482 330.387 20.6407 329.881 24.1026C329.789 24.7339 329.789 25.4872 329.789 26.9938C329.789 28.5004 329.789 29.2537 329.881 29.8851C330.387 33.3469 332.889 36.1394 336.193 37.0685ZM368.522 38.1485C368.764 37.611 369.253 37.2282 369.821 37.0685C373.124 36.1394 375.627 33.3469 376.133 29.8851C376.225 29.2537 376.225 28.5004 376.225 26.9938C376.225 25.4872 376.225 24.7339 376.133 24.1026C375.627 20.6407 373.124 17.8482 369.821 16.9192C369.253 16.7594 368.764 16.3767 368.522 15.8392C368.145 15.003 367.957 14.5849 367.915 14.4503C367.452 12.9489 368.226 11.7419 369.777 11.5462C369.916 11.5286 370.274 11.5286 370.989 11.5286C375.679 11.5286 378.024 11.5286 379.815 12.4466C381.39 13.2541 382.671 14.5425 383.474 16.1273C384.387 17.9289 384.387 20.2874 384.387 25.0044V28.9833C384.387 33.7003 384.387 36.0587 383.474 37.8604C382.671 39.4451 381.39 40.7336 379.815 41.5411C378.024 42.4591 375.679 42.4591 370.989 42.4591C370.274 42.4591 369.916 42.4591 369.777 42.4415C368.226 42.2458 367.452 41.0388 367.915 39.5373C367.957 39.4028 368.145 38.9851 368.521 38.1497L368.522 38.1488L368.522 38.1485Z" fill="white" fill-opacity="0.1"/>
<path fill-rule="evenodd" clip-rule="evenodd" d="M414.165 9.21181C412.324 12.8207 412.324 17.5451 412.324 26.9938C412.324 36.4426 412.324 41.1669 414.165 44.7759C415.784 47.9504 418.367 50.5313 421.544 52.1488C425.156 53.9877 429.885 53.9877 439.342 53.9877H472.832C482.289 53.9877 487.018 53.9877 490.63 52.1488C493.807 50.5313 496.39 47.9504 498.009 44.7759C499.85 41.1669 499.85 36.4426 499.85 26.9938C499.85 17.5451 499.85 12.8207 498.009 9.21181C496.39 6.0373 493.807 3.45634 490.63 1.83885C487.018 0 482.289 0 472.832 0H439.342C429.885 0 425.156 0 421.544 1.83885C418.367 3.45634 415.784 6.0373 414.165 9.21181ZM439.273 37.0685C439.841 37.2282 440.33 37.611 440.572 38.1485L440.572 38.1488C440.949 38.9847 441.137 39.4028 441.179 39.5373C441.641 41.0388 440.868 42.2458 439.317 42.4415C439.178 42.4591 438.82 42.4591 438.104 42.4591C433.415 42.4591 431.07 42.4591 429.279 41.5411C427.704 40.7336 426.423 39.4451 425.62 37.8604C424.707 36.0587 424.707 33.7003 424.707 28.9833V25.0044C424.707 20.2874 424.707 17.9289 425.62 16.1273C426.423 14.5425 427.704 13.2541 429.279 12.4466C431.07 11.5286 433.415 11.5286 438.104 11.5286C438.82 11.5286 439.178 11.5286 439.317 11.5462C440.868 11.7419 441.641 12.9489 441.179 14.4503C441.137 14.5849 440.949 15.0032 440.572 15.8392C440.33 16.3767 439.841 16.7594 439.273 16.9192C435.97 17.8482 433.467 20.6407 432.961 24.1026C432.869 24.7339 432.869 25.4872 432.869 26.9938C432.869 28.5004 432.869 29.2537 432.961 29.8851C433.467 33.3469 435.969 36.1394 439.273 37.0685ZM471.602 38.1485C471.844 37.611 472.333 37.2282 472.901 37.0685C476.204 36.1394 478.707 33.3469 479.213 29.8851C479.305 29.2537 479.305 28.5004 479.305 26.9938C479.305 25.4872 479.305 24.7339 479.213 24.1026C478.707 20.6407 476.204 17.8482 472.901 16.9192C472.333 16.7594 471.844 16.3767 471.602 15.8392C471.225 15.003 471.037 14.5849 470.995 14.4503C470.532 12.9489 471.306 11.7419 472.857 11.5462C472.996 11.5286 473.354 11.5286 474.069 11.5286C478.759 11.5286 481.104 11.5286 482.895 12.4466C484.47 13.2541 485.751 14.5425 486.554 16.1273C487.467 17.9289 487.467 20.2874 487.467 25.0044V28.9833C487.467 33.7003 487.467 36.0587 486.554 37.8604C485.751 39.4451 484.47 40.7336 482.895 41.5411C481.104 42.4591 478.759 42.4591 474.069 42.4591C473.354 42.4591 472.996 42.4591 472.857 42.4415C471.306 42.2458 470.533 41.0388 470.995 39.5373C471.037 39.4028 471.225 38.9851 471.601 38.1497L471.602 38.1488L471.602 38.1485Z" fill="white" fill-opacity="0.1"/>
<path fill-rule="evenodd" clip-rule="evenodd" d="M1.84046 82.2177C0 85.8266 0 90.551 0 99.9997C0 109.448 0 114.173 1.84046 117.782C3.45937 120.956 6.04259 123.537 9.21989 125.155C12.832 126.994 17.5605 126.994 27.0175 126.994H60.508C69.965 126.994 74.6935 126.994 78.3056 125.155C81.4829 123.537 84.0661 120.956 85.685 117.782C87.5255 114.173 87.5255 109.448 87.5255 99.9997C87.5255 90.551 87.5255 85.8266 85.685 82.2177C84.0661 79.0432 81.4829 76.4622 78.3056 74.8447C74.6935 73.0059 69.965 73.0059 60.508 73.0059H27.0175C17.5605 73.0059 12.832 73.0059 9.21989 74.8447C6.04259 76.4622 3.45937 79.0432 1.84046 82.2177ZM26.9487 110.074C27.5166 110.234 28.0057 110.617 28.2479 111.154L28.248 111.155C28.6246 111.991 28.8129 112.409 28.8544 112.543C29.3172 114.045 28.5435 115.252 26.9929 115.447C26.8539 115.465 26.496 115.465 25.7802 115.465C21.0908 115.465 18.746 115.465 16.9549 114.547C15.3794 113.739 14.0984 112.451 13.2957 110.866C12.383 109.065 12.383 106.706 12.383 101.989V98.0102C12.383 93.2933 12.383 90.9348 13.2957 89.1332C14.0984 87.5484 15.3794 86.2599 16.9549 85.4525C18.746 84.5345 21.0908 84.5345 25.7802 84.5345C26.4961 84.5345 26.854 84.5345 26.993 84.552C28.5436 84.7478 29.3172 85.9547 28.8545 87.4562C28.813 87.5908 28.6246 88.009 28.2479 88.8451C28.0057 89.3826 27.5168 89.7653 26.9488 89.925C23.6453 90.8541 21.143 93.6465 20.6369 97.1085C20.5446 97.7398 20.5446 98.4931 20.5446 99.9997C20.5446 101.506 20.5446 102.26 20.6369 102.891C21.143 106.353 23.6452 109.145 26.9487 110.074ZM59.2776 111.154C59.5198 110.617 60.0088 110.234 60.5768 110.074C63.8802 109.145 66.3825 106.353 66.8886 102.891C66.9809 102.26 66.9809 101.506 66.9809 99.9997C66.9809 98.4931 66.9809 97.7398 66.8886 97.1085C66.3825 93.6465 63.8802 90.8541 60.5766 89.925C60.0087 89.7653 59.5197 89.3826 59.2776 88.8451C58.9009 88.0089 58.7125 87.5908 58.671 87.4562C58.2083 85.9547 58.9819 84.7478 60.5325 84.552C60.6715 84.5345 61.0294 84.5345 61.7452 84.5345C66.4347 84.5345 68.7794 84.5345 70.5706 85.4525C72.1461 86.2599 73.427 87.5484 74.2298 89.1332C75.1425 90.9348 75.1425 93.2933 75.1425 98.0102V101.989C75.1425 106.706 75.1425 109.065 74.2298 110.866C73.427 112.451 72.1461 113.739 70.5706 114.547C68.7794 115.465 66.4347 115.465 61.7452 115.465C61.0295 115.465 60.6716 115.465 60.5326 115.447C58.982 115.252 58.2083 114.045 58.6711 112.543C58.7126 112.409 58.9007 111.991 59.2771 111.156L59.2775 111.155L59.2776 111.154Z" fill="white" fill-opacity="0.1"/>
<path fill-rule="evenodd" clip-rule="evenodd" d="M104.921 82.2177C103.08 85.8266 103.08 90.551 103.08 99.9997C103.08 109.448 103.08 114.173 104.921 117.782C106.539 120.956 109.123 123.537 112.3 125.155C115.912 126.994 120.641 126.994 130.098 126.994H163.588C173.045 126.994 177.774 126.994 181.386 125.155C184.563 123.537 187.146 120.956 188.765 117.782C190.606 114.173 190.606 109.448 190.606 99.9997C190.606 90.551 190.606 85.8266 188.765 82.2177C187.146 79.0432 184.563 76.4622 181.386 74.8447C177.774 73.0059 173.045 73.0059 163.588 73.0059H130.098C120.641 73.0059 115.912 73.0059 112.3 74.8447C109.123 76.4622 106.539 79.0432 104.921 82.2177ZM130.029 110.074C130.597 110.234 131.086 110.617 131.328 111.154L131.328 111.155C131.705 111.991 131.893 112.409 131.934 112.543C132.397 114.045 131.624 115.252 130.073 115.447C129.934 115.465 129.576 115.465 128.86 115.465C124.171 115.465 121.826 115.465 120.035 114.547C118.459 113.739 117.179 112.451 116.376 110.866C115.463 109.065 115.463 106.706 115.463 101.989V98.0102C115.463 93.2933 115.463 90.9348 116.376 89.1332C117.179 87.5484 118.459 86.2599 120.035 85.4525C121.826 84.5345 124.171 84.5345 128.86 84.5345C129.576 84.5345 129.934 84.5345 130.073 84.552C131.624 84.7478 132.397 85.9547 131.935 87.4562C131.893 87.5908 131.705 88.009 131.328 88.8451C131.086 89.3826 130.597 89.7653 130.029 89.925C126.725 90.8541 124.223 93.6465 123.717 97.1085C123.625 97.7398 123.625 98.4931 123.625 99.9997C123.625 101.506 123.625 102.26 123.717 102.891C124.223 106.353 126.725 109.145 130.029 110.074ZM162.358 111.154C162.6 110.617 163.089 110.234 163.657 110.074C166.96 109.145 169.463 106.353 169.969 102.891C170.061 102.26 170.061 101.506 170.061 99.9997C170.061 98.4931 170.061 97.7398 169.969 97.1085C169.463 93.6465 166.96 90.8541 163.657 89.925C163.089 89.7653 162.6 89.3826 162.358 88.8451C161.981 88.0089 161.793 87.5908 161.751 87.4562C161.288 85.9547 162.062 84.7478 163.613 84.552C163.752 84.5345 164.109 84.5345 164.825 84.5345C169.515 84.5345 171.86 84.5345 173.651 85.4525C175.226 86.2599 176.507 87.5484 177.31 89.1332C178.223 90.9348 178.223 93.2933 178.223 98.0102V101.989C178.223 106.706 178.223 109.065 177.31 110.866C176.507 112.451 175.226 113.739 173.651 114.547C171.86 115.465 169.515 115.465 164.825 115.465C164.11 115.465 163.752 115.465 163.613 115.447C162.062 115.252 161.288 114.045 161.751 112.543C161.793 112.409 161.981 111.991 162.357 111.156L162.358 111.155L162.358 111.154Z" fill="white" fill-opacity="0.1"/>
<path fill-rule="evenodd" clip-rule="evenodd" d="M208.005 82.2177C206.164 85.8266 206.164 90.551 206.164 99.9997C206.164 109.448 206.164 114.173 208.005 117.782C209.623 120.956 212.207 123.537 215.384 125.155C218.996 126.994 223.725 126.994 233.182 126.994H266.672C276.129 126.994 280.858 126.994 284.47 125.155C287.647 123.537 290.23 120.956 291.849 117.782C293.69 114.173 293.69 109.448 293.69 99.9997C293.69 90.551 293.69 85.8266 291.849 82.2177C290.23 79.0432 287.647 76.4622 284.47 74.8447C280.858 73.0059 276.129 73.0059 266.672 73.0059H233.182C223.725 73.0059 218.996 73.0059 215.384 74.8447C212.207 76.4622 209.623 79.0432 208.005 82.2177ZM233.113 110.074C233.681 110.234 234.17 110.617 234.412 111.154L234.412 111.155C234.789 111.991 234.977 112.409 235.018 112.543C235.481 114.045 234.708 115.252 233.157 115.447C233.018 115.465 232.66 115.465 231.944 115.465C227.255 115.465 224.91 115.465 223.119 114.547C221.543 113.739 220.262 112.451 219.46 110.866C218.547 109.065 218.547 106.706 218.547 101.989V98.0102C218.547 93.2933 218.547 90.9348 219.46 89.1332C220.262 87.5484 221.543 86.2599 223.119 85.4525C224.91 84.5345 227.255 84.5345 231.944 84.5345C232.66 84.5345 233.018 84.5345 233.157 84.552C234.708 84.7478 235.481 85.9547 235.019 87.4562C234.977 87.5908 234.789 88.009 234.412 88.8451C234.17 89.3826 233.681 89.7653 233.113 89.925C229.809 90.8541 227.307 93.6465 226.801 97.1085C226.709 97.7398 226.709 98.4931 226.709 99.9997C226.709 101.506 226.709 102.26 226.801 102.891C227.307 106.353 229.809 109.145 233.113 110.074ZM265.442 111.154C265.684 110.617 266.173 110.234 266.741 110.074C270.044 109.145 272.547 106.353 273.053 102.891C273.145 102.26 273.145 101.506 273.145 99.9997C273.145 98.4931 273.145 97.7398 273.053 97.1085C272.547 93.6465 270.044 90.8541 266.741 89.925C266.173 89.7653 265.684 89.3826 265.442 88.8451C265.065 88.0089 264.877 87.5908 264.835 87.4562C264.372 85.9547 265.146 84.7478 266.697 84.552C266.836 84.5345 267.193 84.5345 267.909 84.5345C272.599 84.5345 274.943 84.5345 276.735 85.4525C278.31 86.2599 279.591 87.5484 280.394 89.1332C281.307 90.9348 281.307 93.2933 281.307 98.0102V101.989C281.307 106.706 281.307 109.065 280.394 110.866C279.591 112.451 278.31 113.739 276.735 114.547C274.943 115.465 272.599 115.465 267.909 115.465C267.194 115.465 266.836 115.465 266.697 115.447C265.146 115.252 264.372 114.045 264.835 112.543C264.877 112.409 265.065 111.991 265.441 111.156L265.442 111.155L265.442 111.154Z" fill="white" fill-opacity="0.1"/>
<path fill-rule="evenodd" clip-rule="evenodd" d="M311.085 82.2177C309.244 85.8266 309.244 90.551 309.244 99.9997C309.244 109.448 309.244 114.173 311.085 117.782C312.704 120.956 315.287 123.537 318.464 125.155C322.076 126.994 326.805 126.994 336.262 126.994H369.752C379.209 126.994 383.938 126.994 387.55 125.155C390.727 123.537 393.31 120.956 394.929 117.782C396.77 114.173 396.77 109.448 396.77 99.9997C396.77 90.551 396.77 85.8266 394.929 82.2177C393.31 79.0432 390.727 76.4622 387.55 74.8447C383.938 73.0059 379.209 73.0059 369.752 73.0059H336.262C326.805 73.0059 322.076 73.0059 318.464 74.8447C315.287 76.4622 312.704 79.0432 311.085 82.2177ZM336.193 110.074C336.761 110.234 337.25 110.617 337.492 111.154L337.492 111.155C337.869 111.991 338.057 112.409 338.099 112.543C338.561 114.045 337.788 115.252 336.237 115.447C336.098 115.465 335.74 115.465 335.024 115.465C330.335 115.465 327.99 115.465 326.199 114.547C324.624 113.739 323.343 112.451 322.54 110.866C321.627 109.065 321.627 106.706 321.627 101.989V98.0102C321.627 93.2933 321.627 90.9348 322.54 89.1332C323.343 87.5484 324.624 86.2599 326.199 85.4525C327.99 84.5345 330.335 84.5345 335.024 84.5345C335.74 84.5345 336.098 84.5345 336.237 84.552C337.788 84.7478 338.561 85.9547 338.099 87.4562C338.057 87.5908 337.869 88.009 337.492 88.8451C337.25 89.3826 336.761 89.7653 336.193 89.925C332.889 90.8541 330.387 93.6465 329.881 97.1085C329.789 97.7398 329.789 98.4931 329.789 99.9997C329.789 101.506 329.789 102.26 329.881 102.891C330.387 106.353 332.889 109.145 336.193 110.074ZM368.522 111.154C368.764 110.617 369.253 110.234 369.821 110.074C373.124 109.145 375.627 106.353 376.133 102.891C376.225 102.26 376.225 101.506 376.225 99.9997C376.225 98.4931 376.225 97.7398 376.133 97.1085C375.627 93.6465 373.124 90.8541 369.821 89.925C369.253 89.7653 368.764 89.3826 368.522 88.8451C368.145 88.0089 367.957 87.5908 367.915 87.4562C367.452 85.9547 368.226 84.7478 369.777 84.552C369.916 84.5345 370.274 84.5345 370.989 84.5345C375.679 84.5345 378.024 84.5345 379.815 85.4525C381.39 86.2599 382.671 87.5484 383.474 89.1332C384.387 90.9348 384.387 93.2933 384.387 98.0102V101.989C384.387 106.706 384.387 109.065 383.474 110.866C382.671 112.451 381.39 113.739 379.815 114.547C378.024 115.465 375.679 115.465 370.989 115.465C370.274 115.465 369.916 115.465 369.777 115.447C368.226 115.252 367.452 114.045 367.915 112.543C367.957 112.409 368.145 111.991 368.521 111.156L368.522 111.155L368.522 111.154Z" fill="white" fill-opacity="0.1"/>
<path fill-rule="evenodd" clip-rule="evenodd" d="M414.165 82.2177C412.324 85.8266 412.324 90.551 412.324 99.9997C412.324 109.448 412.324 114.173 414.165 117.782C415.784 120.956 418.367 123.537 421.544 125.155C425.156 126.994 429.885 126.994 439.342 126.994H472.832C482.289 126.994 487.018 126.994 490.63 125.155C493.807 123.537 496.39 120.956 498.009 117.782C499.85 114.173 499.85 109.448 499.85 99.9997C499.85 90.551 499.85 85.8266 498.009 82.2177C496.39 79.0432 493.807 76.4622 490.63 74.8447C487.018 73.0059 482.289 73.0059 472.832 73.0059H439.342C429.885 73.0059 425.156 73.0059 421.544 74.8447C418.367 76.4622 415.784 79.0432 414.165 82.2177ZM439.273 110.074C439.841 110.234 440.33 110.617 440.572 111.154L440.572 111.155C440.949 111.991 441.137 112.409 441.179 112.543C441.641 114.045 440.868 115.252 439.317 115.447C439.178 115.465 438.82 115.465 438.104 115.465C433.415 115.465 431.07 115.465 429.279 114.547C427.704 113.739 426.423 112.451 425.62 110.866C424.707 109.065 424.707 106.706 424.707 101.989V98.0102C424.707 93.2933 424.707 90.9348 425.62 89.1332C426.423 87.5484 427.704 86.2599 429.279 85.4525C431.07 84.5345 433.415 84.5345 438.104 84.5345C438.82 84.5345 439.178 84.5345 439.317 84.552C440.868 84.7478 441.641 85.9547 441.179 87.4562C441.137 87.5908 440.949 88.009 440.572 88.8451C440.33 89.3826 439.841 89.7653 439.273 89.925C435.97 90.8541 433.467 93.6465 432.961 97.1085C432.869 97.7398 432.869 98.4931 432.869 99.9997C432.869 101.506 432.869 102.26 432.961 102.891C433.467 106.353 435.969 109.145 439.273 110.074ZM471.602 111.154C471.844 110.617 472.333 110.234 472.901 110.074C476.204 109.145 478.707 106.353 479.213 102.891C479.305 102.26 479.305 101.506 479.305 99.9997C479.305 98.4931 479.305 97.7398 479.213 97.1085C478.707 93.6465 476.204 90.8541 472.901 89.925C472.333 89.7653 471.844 89.3826 471.602 88.8451C471.225 88.0089 471.037 87.5908 470.995 87.4562C470.532 85.9547 471.306 84.7478 472.857 84.552C472.996 84.5345 473.354 84.5345 474.069 84.5345C478.759 84.5345 481.104 84.5345 482.895 85.4525C484.47 86.2599 485.751 87.5484 486.554 89.1332C487.467 90.9348 487.467 93.2933 487.467 98.0102V101.989C487.467 106.706 487.467 109.065 486.554 110.866C485.751 112.451 484.47 113.739 482.895 114.547C481.104 115.465 478.759 115.465 474.069 115.465C473.354 115.465 472.996 115.465 472.857 115.447C471.306 115.252 470.533 114.045 470.995 112.543C471.037 112.409 471.225 111.991 471.601 111.156L471.602 111.155L471.602 111.154Z" fill="white" fill-opacity="0.1"/>
<path fill-rule="evenodd" clip-rule="evenodd" d="M1.84046 155.224C0 158.833 0 163.557 0 173.006C0 182.455 0 187.179 1.84046 190.788C3.45937 193.963 6.04259 196.544 9.21989 198.161C12.832 200 17.5605 200 27.0175 200H60.508C69.965 200 74.6935 200 78.3056 198.161C81.4829 196.544 84.0661 193.963 85.685 190.788C87.5255 187.179 87.5255 182.455 87.5255 173.006C87.5255 163.557 87.5255 158.833 85.685 155.224C84.0661 152.05 81.4829 149.469 78.3056 147.851C74.6935 146.012 69.965 146.012 60.508 146.012H27.0175C17.5605 146.012 12.832 146.012 9.21989 147.851C6.04259 149.469 3.45937 152.05 1.84046 155.224ZM26.9487 183.081C27.5166 183.24 28.0057 183.623 28.2479 184.161L28.248 184.161C28.6246 184.997 28.8129 185.415 28.8544 185.55C29.3172 187.051 28.5435 188.258 26.9929 188.454C26.8539 188.471 26.496 188.471 25.7802 188.471C21.0908 188.471 18.746 188.471 16.9549 187.553C15.3794 186.746 14.0984 185.457 13.2957 183.873C12.383 182.071 12.383 179.712 12.383 174.996V171.017C12.383 166.3 12.383 163.941 13.2957 162.14C14.0984 160.555 15.3794 159.266 16.9549 158.459C18.746 157.541 21.0908 157.541 25.7802 157.541C26.4961 157.541 26.854 157.541 26.993 157.558C28.5436 157.754 29.3172 158.961 28.8545 160.463C28.813 160.597 28.6246 161.015 28.2479 161.851C28.0057 162.389 27.5168 162.772 26.9488 162.931C23.6453 163.86 21.143 166.653 20.6369 170.115C20.5446 170.746 20.5446 171.499 20.5446 173.006C20.5446 174.513 20.5446 175.266 20.6369 175.897C21.143 179.359 23.6452 182.152 26.9487 183.081ZM59.2776 184.161C59.5198 183.623 60.0088 183.24 60.5768 183.081C63.8802 182.152 66.3825 179.359 66.8886 175.897C66.9809 175.266 66.9809 174.513 66.9809 173.006C66.9809 171.499 66.9809 170.746 66.8886 170.115C66.3825 166.653 63.8802 163.86 60.5766 162.931C60.0087 162.772 59.5197 162.389 59.2776 161.851C58.9009 161.015 58.7125 160.597 58.671 160.463C58.2083 158.961 58.9819 157.754 60.5325 157.558C60.6715 157.541 61.0294 157.541 61.7452 157.541C66.4347 157.541 68.7794 157.541 70.5706 158.459C72.1461 159.266 73.427 160.555 74.2298 162.14C75.1425 163.941 75.1425 166.3 75.1425 171.017V174.996C75.1425 179.712 75.1425 182.071 74.2298 183.873C73.427 185.457 72.1461 186.746 70.5706 187.553C68.7794 188.471 66.4347 188.471 61.7452 188.471C61.0295 188.471 60.6716 188.471 60.5326 188.454C58.982 188.258 58.2083 187.051 58.6711 185.55C58.7126 185.415 58.9007 184.997 59.2771 184.162L59.2775 184.161L59.2776 184.161Z" fill="white" fill-opacity="0.1"/>
<path fill-rule="evenodd" clip-rule="evenodd" d="M104.921 155.224C103.08 158.833 103.08 163.557 103.08 173.006C103.08 182.455 103.08 187.179 104.921 190.788C106.539 193.963 109.123 196.544 112.3 198.161C115.912 200 120.641 200 130.098 200H163.588C173.045 200 177.774 200 181.386 198.161C184.563 196.544 187.146 193.963 188.765 190.788C190.606 187.179 190.606 182.455 190.606 173.006C190.606 163.557 190.606 158.833 188.765 155.224C187.146 152.05 184.563 149.469 181.386 147.851C177.774 146.012 173.045 146.012 163.588 146.012H130.098C120.641 146.012 115.912 146.012 112.3 147.851C109.123 149.469 106.539 152.05 104.921 155.224ZM130.029 183.081C130.597 183.24 131.086 183.623 131.328 184.161L131.328 184.161C131.705 184.997 131.893 185.415 131.934 185.55C132.397 187.051 131.624 188.258 130.073 188.454C129.934 188.471 129.576 188.471 128.86 188.471C124.171 188.471 121.826 188.471 120.035 187.553C118.459 186.746 117.179 185.457 116.376 183.873C115.463 182.071 115.463 179.712 115.463 174.996V171.017C115.463 166.3 115.463 163.941 116.376 162.14C117.179 160.555 118.459 159.266 120.035 158.459C121.826 157.541 124.171 157.541 128.86 157.541C129.576 157.541 129.934 157.541 130.073 157.558C131.624 157.754 132.397 158.961 131.935 160.463C131.893 160.597 131.705 161.015 131.328 161.851C131.086 162.389 130.597 162.772 130.029 162.931C126.725 163.86 124.223 166.653 123.717 170.115C123.625 170.746 123.625 171.499 123.625 173.006C123.625 174.513 123.625 175.266 123.717 175.897C124.223 179.359 126.725 182.152 130.029 183.081ZM162.358 184.161C162.6 183.623 163.089 183.24 163.657 183.081C166.96 182.152 169.463 179.359 169.969 175.897C170.061 175.266 170.061 174.513 170.061 173.006C170.061 171.499 170.061 170.746 169.969 170.115C169.463 166.653 166.96 163.86 163.657 162.931C163.089 162.772 162.6 162.389 162.358 161.851C161.981 161.015 161.793 160.597 161.751 160.463C161.288 158.961 162.062 157.754 163.613 157.558C163.752 157.541 164.109 157.541 164.825 157.541C169.515 157.541 171.86 157.541 173.651 158.459C175.226 159.266 176.507 160.555 177.31 162.14C178.223 163.941 178.223 166.3 178.223 171.017V174.996C178.223 179.712 178.223 182.071 177.31 183.873C176.507 185.457 175.226 186.746 173.651 187.553C171.86 188.471 169.515 188.471 164.825 188.471C164.11 188.471 163.752 188.471 163.613 188.454C162.062 188.258 161.288 187.051 161.751 185.55C161.793 185.415 161.981 184.997 162.357 184.162L162.358 184.161L162.358 184.161Z" fill="white" fill-opacity="0.1"/>
<path fill-rule="evenodd" clip-rule="evenodd" d="M208.005 155.224C206.164 158.833 206.164 163.557 206.164 173.006C206.164 182.455 206.164 187.179 208.005 190.788C209.623 193.963 212.207 196.544 215.384 198.161C218.996 200 223.725 200 233.182 200H266.672C276.129 200 280.858 200 284.47 198.161C287.647 196.544 290.23 193.963 291.849 190.788C293.69 187.179 293.69 182.455 293.69 173.006C293.69 163.557 293.69 158.833 291.849 155.224C290.23 152.05 287.647 149.469 284.47 147.851C280.858 146.012 276.129 146.012 266.672 146.012H233.182C223.725 146.012 218.996 146.012 215.384 147.851C212.207 149.469 209.623 152.05 208.005 155.224ZM233.113 183.081C233.681 183.24 234.17 183.623 234.412 184.161L234.412 184.161C234.789 184.997 234.977 185.415 235.018 185.55C235.481 187.051 234.708 188.258 233.157 188.454C233.018 188.471 232.66 188.471 231.944 188.471C227.255 188.471 224.91 188.471 223.119 187.553C221.543 186.746 220.262 185.457 219.46 183.873C218.547 182.071 218.547 179.712 218.547 174.996V171.017C218.547 166.3 218.547 163.941 219.46 162.14C220.262 160.555 221.543 159.266 223.119 158.459C224.91 157.541 227.255 157.541 231.944 157.541C232.66 157.541 233.018 157.541 233.157 157.558C234.708 157.754 235.481 158.961 235.019 160.463C234.977 160.597 234.789 161.015 234.412 161.851C234.17 162.389 233.681 162.772 233.113 162.931C229.809 163.86 227.307 166.653 226.801 170.115C226.709 170.746 226.709 171.499 226.709 173.006C226.709 174.513 226.709 175.266 226.801 175.897C227.307 179.359 229.809 182.152 233.113 183.081ZM265.442 184.161C265.684 183.623 266.173 183.24 266.741 183.081C270.044 182.152 272.547 179.359 273.053 175.897C273.145 175.266 273.145 174.513 273.145 173.006C273.145 171.499 273.145 170.746 273.053 170.115C272.547 166.653 270.044 163.86 266.741 162.931C266.173 162.772 265.684 162.389 265.442 161.851C265.065 161.015 264.877 160.597 264.835 160.463C264.372 158.961 265.146 157.754 266.697 157.558C266.836 157.541 267.193 157.541 267.909 157.541C272.599 157.541 274.943 157.541 276.735 158.459C278.31 159.266 279.591 160.555 280.394 162.14C281.307 163.941 281.307 166.3 281.307 171.017V174.996C281.307 179.712 281.307 182.071 280.394 183.873C279.591 185.457 278.31 186.746 276.735 187.553C274.943 188.471 272.599 188.471 267.909 188.471C267.194 188.471 266.836 188.471 266.697 188.454C265.146 188.258 264.372 187.051 264.835 185.55C264.877 185.415 265.065 184.997 265.441 184.162L265.442 184.161L265.442 184.161Z" fill="white" fill-opacity="0.1"/>
<path fill-rule="evenodd" clip-rule="evenodd" d="M311.085 155.224C309.244 158.833 309.244 163.557 309.244 173.006C309.244 182.455 309.244 187.179 311.085 190.788C312.704 193.963 315.287 196.544 318.464 198.161C322.076 200 326.805 200 336.262 200H369.752C379.209 200 383.938 200 387.55 198.161C390.727 196.544 393.31 193.963 394.929 190.788C396.77 187.179 396.77 182.455 396.77 173.006C396.77 163.557 396.77 158.833 394.929 155.224C393.31 152.05 390.727 149.469 387.55 147.851C383.938 146.012 379.209 146.012 369.752 146.012H336.262C326.805 146.012 322.076 146.012 318.464 147.851C315.287 149.469 312.704 152.05 311.085 155.224ZM336.193 183.081C336.761 183.24 337.25 183.623 337.492 184.161L337.492 184.161C337.869 184.997 338.057 185.415 338.099 185.55C338.561 187.051 337.788 188.258 336.237 188.454C336.098 188.471 335.74 188.471 335.024 188.471C330.335 188.471 327.99 188.471 326.199 187.553C324.624 186.746 323.343 185.457 322.54 183.873C321.627 182.071 321.627 179.712 321.627 174.996V171.017C321.627 166.3 321.627 163.941 322.54 162.14C323.343 160.555 324.624 159.266 326.199 158.459C327.99 157.541 330.335 157.541 335.024 157.541C335.74 157.541 336.098 157.541 336.237 157.558C337.788 157.754 338.561 158.961 338.099 160.463C338.057 160.597 337.869 161.015 337.492 161.851C337.25 162.389 336.761 162.772 336.193 162.931C332.889 163.86 330.387 166.653 329.881 170.115C329.789 170.746 329.789 171.499 329.789 173.006C329.789 174.513 329.789 175.266 329.881 175.897C330.387 179.359 332.889 182.152 336.193 183.081ZM368.522 184.161C368.764 183.623 369.253 183.24 369.821 183.081C373.124 182.152 375.627 179.359 376.133 175.897C376.225 175.266 376.225 174.513 376.225 173.006C376.225 171.499 376.225 170.746 376.133 170.115C375.627 166.653 373.124 163.86 369.821 162.931C369.253 162.772 368.764 162.389 368.522 161.851C368.145 161.015 367.957 160.597 367.915 160.463C367.452 158.961 368.226 157.754 369.777 157.558C369.916 157.541 370.274 157.541 370.989 157.541C375.679 157.541 378.024 157.541 379.815 158.459C381.39 159.266 382.671 160.555 383.474 162.14C384.387 163.941 384.387 166.3 384.387 171.017V174.996C384.387 179.712 384.387 182.071 383.474 183.873C382.671 185.457 381.39 186.746 379.815 187.553C378.024 188.471 375.679 188.471 370.989 188.471C370.274 188.471 369.916 188.471 369.777 188.454C368.226 188.258 367.452 187.051 367.915 185.55C367.957 185.415 368.145 184.997 368.521 184.162L368.522 184.161L368.522 184.161Z" fill="white" fill-opacity="0.1"/>
<path fill-rule="evenodd" clip-rule="evenodd" d="M414.165 155.224C412.324 158.833 412.324 163.557 412.324 173.006C412.324 182.455 412.324 187.179 414.165 190.788C415.784 193.963 418.367 196.544 421.544 198.161C425.156 200 429.885 200 439.342 200H472.832C482.289 200 487.018 200 490.63 198.161C493.807 196.544 496.39 193.963 498.009 190.788C499.85 187.179 499.85 182.455 499.85 173.006C499.85 163.557 499.85 158.833 498.009 155.224C496.39 152.05 493.807 149.469 490.63 147.851C487.018 146.012 482.289 146.012 472.832 146.012H439.342C429.885 146.012 425.156 146.012 421.544 147.851C418.367 149.469 415.784 152.05 414.165 155.224ZM439.273 183.081C439.841 183.24 440.33 183.623 440.572 184.161L440.572 184.161C440.949 184.997 441.137 185.415 441.179 185.55C441.641 187.051 440.868 188.258 439.317 188.454C439.178 188.471 438.82 188.471 438.104 188.471C433.415 188.471 431.07 188.471 429.279 187.553C427.704 186.746 426.423 185.457 425.62 183.873C424.707 182.071 424.707 179.712 424.707 174.996V171.017C424.707 166.3 424.707 163.941 425.62 162.14C426.423 160.555 427.704 159.266 429.279 158.459C431.07 157.541 433.415 157.541 438.104 157.541C438.82 157.541 439.178 157.541 439.317 157.558C440.868 157.754 441.641 158.961 441.179 160.463C441.137 160.597 440.949 161.015 440.572 161.851C440.33 162.389 439.841 162.772 439.273 162.931C435.97 163.86 433.467 166.653 432.961 170.115C432.869 170.746 432.869 171.499 432.869 173.006C432.869 174.513 432.869 175.266 432.961 175.897C433.467 179.359 435.969 182.152 439.273 183.081ZM471.602 184.161C471.844 183.623 472.333 183.24 472.901 183.081C476.204 182.152 478.707 179.359 479.213 175.897C479.305 175.266 479.305 174.513 479.305 173.006C479.305 171.499 479.305 170.746 479.213 170.115C478.707 166.653 476.204 163.86 472.901 162.931C472.333 162.772 471.844 162.389 471.602 161.851C471.225 161.015 471.037 160.597 470.995 160.463C470.532 158.961 471.306 157.754 472.857 157.558C472.996 157.541 473.354 157.541 474.069 157.541C478.759 157.541 481.104 157.541 482.895 158.459C484.47 159.266 485.751 160.555 486.554 162.14C487.467 163.941 487.467 166.3 487.467 171.017V174.996C487.467 179.712 487.467 182.071 486.554 183.873C485.751 185.457 484.47 186.746 482.895 187.553C481.104 188.471 478.759 188.471 474.069 188.471C473.354 188.471 472.996 188.471 472.857 188.454C471.306 188.258 470.533 187.051 470.995 185.55C471.037 185.415 471.225 184.997 471.601 184.162L471.602 184.161L471.602 184.161Z" fill="white" fill-opacity="0.1"/>
</svg>
