<?xml version="1.0" standalone="no"?>
<!DOCTYPE svg PUBLIC "-//W3C//DTD SVG 20010904//EN"
 "http://www.w3.org/TR/2001/REC-SVG-20010904/DTD/svg10.dtd">
<svg version="1.0" xmlns="http://www.w3.org/2000/svg"
 width="300.000000pt" height="300.000000pt" viewBox="0 0 300.000000 300.000000"
 preserveAspectRatio="xMidYMid meet">
<metadata>
Created by potrace 1.14, written by Peter Selinger 2001-2017
</metadata>
<g transform="translate(0.000000,300.000000) scale(0.100000,-0.100000)"
fill="#000000" stroke="none">
<path d="M1400 2706 c-74 -22 -93 -32 -142 -75 -99 -88 -130 -230 -75 -342 15
-31 60 -89 104 -134 118 -120 171 -234 180 -385 10 -170 -47 -312 -182 -456
-77 -81 -99 -216 -52 -317 102 -221 410 -260 575 -72 74 84 92 216 44 317 -13
25 -56 80 -97 122 -151 154 -213 344 -175 534 17 84 81 209 139 272 78 84 106
149 106 240 0 88 -25 148 -88 211 -81 81 -228 118 -337 85z"/>
<path d="M631 2153 c-106 -36 -185 -113 -216 -211 -35 -107 4 -232 99 -318
134 -122 199 -267 199 -439 0 -156 -51 -279 -161 -395 -122 -129 -132 -298
-23 -422 124 -140 359 -152 493 -25 55 52 72 79 91 145 34 112 -1 217 -108
321 -74 74 -115 132 -149 217 -60 149 -54 312 19 459 34 70 41 81 112 160 187
208 49 511 -237 521 -48 2 -91 -3 -119 -13z"/>
<path d="M2175 2161 c-98 -26 -185 -95 -226 -178 -18 -38 -23 -64 -23 -123 0
-97 25 -153 101 -228 81 -80 118 -130 153 -204 104 -223 62 -456 -117 -651
-64 -69 -87 -127 -87 -212 -1 -242 269 -386 502 -268 104 53 164 150 165 267
1 89 -31 162 -100 228 -77 73 -113 119 -149 193 -106 221 -67 463 105 652 121
132 126 301 13 422 -63 66 -139 101 -235 106 -39 2 -85 1 -102 -4z"/>
</g>
</svg>
