<svg width="140" height="140" viewBox="0 0 140 140" fill="none" xmlns="http://www.w3.org/2000/svg">
<path d="M54.4042 102.819C55.3231 102.242 56.1178 101.487 56.7417 100.599C57.3656 99.7116 57.8062 98.7081 58.0379 97.6479C58.9813 93.5915 61.492 90.0735 65.0213 87.8625C68.5507 85.6516 72.8117 84.9276 76.8732 85.8486C78.443 86.2027 80.0824 86.0851 81.5856 85.5105C83.0888 84.9359 84.3887 83.93 85.322 82.6191C86.2553 81.3081 86.7804 79.7506 86.8315 78.1421C86.8825 76.5337 86.4572 74.9461 85.6089 73.5786C84.7605 72.2111 83.5271 71.1248 82.0634 70.456C80.5996 69.7873 78.971 69.5659 77.3819 69.8198C75.7928 70.0736 74.3141 70.7914 73.1316 71.8829C71.9491 72.9743 71.1154 74.3909 70.7354 75.9546C70.2791 77.9776 69.428 79.8906 68.2309 81.584C67.0339 83.2774 65.5143 84.7179 63.7595 85.8229C62.0046 86.9279 60.0489 87.6757 58.0045 88.0234C55.9601 88.3712 53.8671 88.312 51.8456 87.8493C50.5424 87.5753 49.192 87.6241 47.9121 87.9916C46.6322 88.3591 45.4616 89.0341 44.5022 89.9577C43.5429 90.8813 42.824 92.0254 42.4082 93.2905C41.9924 94.5556 41.8924 95.9031 42.1167 97.2157C42.341 98.5284 42.883 99.7662 43.6953 100.821C44.5077 101.877 45.5657 102.717 46.7773 103.27C47.989 103.822 49.3173 104.07 50.6466 103.992C51.976 103.913 53.266 103.511 54.4042 102.819Z" fill="#00501E"/>
<path d="M63.4682 52.6144C62.6887 54.0429 62.3537 55.6716 62.5063 57.2917C62.6589 58.9119 63.2921 60.4494 64.3246 61.7072C65.3572 62.965 66.742 63.8856 68.3013 64.3508C69.8607 64.8161 71.5235 64.8048 73.0764 64.3184C75.0566 63.7019 77.1389 63.4823 79.2041 63.6722C81.2693 63.8621 83.2767 64.4576 85.1112 65.4249C86.9457 66.3921 88.5713 67.7119 89.8948 69.3086C91.2183 70.9053 92.2135 72.7475 92.8236 74.7296C93.3051 76.2669 94.2306 77.6273 95.4835 78.6398C96.7364 79.6523 98.2608 80.2716 99.8649 80.4197C101.469 80.5679 103.081 80.2383 104.498 79.4724C105.915 78.7065 107.074 77.5385 107.829 76.1155C108.584 74.6924 108.901 73.0779 108.741 71.4751C108.58 69.8722 107.949 68.3526 106.927 67.1075C105.905 65.8624 104.537 64.9475 102.997 64.4778C101.456 64.0082 99.8102 64.0048 98.2674 64.4681C94.2844 65.6843 89.9817 65.273 86.3012 63.3244C82.6207 61.3757 79.8621 58.0484 78.6291 54.0706C78.1737 52.5003 77.2575 51.1028 75.9989 50.0591C74.7403 49.0154 73.1974 48.3735 71.57 48.2166C69.9425 48.0598 68.3054 48.3951 66.8707 49.1792C65.4359 49.9633 64.2696 51.16 63.5227 52.6144H63.4682Z" fill="#00501E"/>
<path d="M64.8021 73.6273C64.764 72.5416 64.5096 71.4745 64.0539 70.4883C63.5982 69.5021 62.9504 68.6168 62.1482 67.8841C59.1079 65.0416 57.3166 61.1109 57.1661 56.9515C57.0156 52.792 58.5182 48.7421 61.3452 45.6873C62.0858 44.898 62.6622 43.9694 63.0407 42.9554C63.4192 41.9415 63.5923 40.8624 63.55 39.7809C63.4872 38.4497 63.0994 37.154 62.4207 36.0071C61.742 34.8601 60.793 33.8968 59.6564 33.2011C58.5197 32.5053 57.23 32.0984 55.8999 32.0157C54.5697 31.9331 53.2396 32.1772 52.0255 32.7269C50.8115 33.2766 49.7503 34.115 48.9348 35.1691C48.1193 36.2232 47.5744 37.4608 47.3473 38.774C47.1202 40.0872 47.2179 41.4361 47.632 42.7028C48.0461 43.9696 48.7639 45.1157 49.7229 46.0411C51.2471 47.4489 52.4786 49.1435 53.3468 51.0279C54.215 52.9124 54.703 54.9496 54.7826 57.0229C54.8622 59.0962 54.5321 61.1649 53.811 63.1104C53.0898 65.0559 51.9919 66.84 50.5802 68.3605C49.6857 69.3504 49.0476 70.5444 48.7214 71.838C48.3951 73.1317 48.3908 74.4855 48.7088 75.7812C49.0268 77.0769 49.6574 78.2748 50.5455 79.2704C51.4336 80.266 52.5521 81.0288 53.8032 81.4922C55.0543 81.9555 56.3999 82.1052 57.7223 81.9283C59.0446 81.7513 60.3034 81.253 61.3887 80.4769C62.4739 79.7009 63.3524 78.6709 63.9475 77.4768C64.5425 76.2827 64.836 74.961 64.8021 73.6273Z" fill="#00501E"/>
<path d="M125.75 76.4952L47.75 121.529C42.75 124.415 36.5 120.807 36.5 115.033L36.5 24.9667C36.5 19.1932 42.75 15.5847 47.75 18.4715L125.75 63.5048C130.75 66.3916 130.75 73.6084 125.75 76.4952Z" stroke="#00501E" stroke-width="5"/>
</svg>
