<svg xmlns="http://www.w3.org/2000/svg" width="67" height="73" fill="none" viewBox="0 0 67 73"><path fill="#6366f1" fill-opacity=".94" d="M12.4042 70.8195C13.3231 70.2422 14.1178 69.4875 14.7417 68.5995C15.3656 67.7116 15.8062 66.7081 16.0379 65.6479C16.9813 61.5915 19.492 58.0735 23.0213 55.8625C26.5507 53.6516 30.8117 52.9276 34.8732 53.8486C36.443 54.2027 38.0824 54.0851 39.5856 53.5105C41.0888 52.9359 42.3887 51.93 43.322 50.6191C44.2553 49.3081 44.7804 47.7506 44.8315 46.1421C44.8825 44.5337 44.4572 42.9461 43.6089 41.5786C42.7605 40.2111 41.5271 39.1248 40.0634 38.456C38.5996 37.7873 36.971 37.5659 35.3819 37.8198C33.7928 38.0736 32.3141 38.7914 31.1316 39.8829C29.9491 40.9743 29.1154 42.3909 28.7354 43.9546C28.2791 45.9776 27.428 47.8906 26.2309 49.584C25.0339 51.2774 23.5143 52.7179 21.7595 53.8229C20.0046 54.9279 18.0489 55.6757 16.0045 56.0234C13.9601 56.3712 11.8671 56.312 9.8456 55.8493C8.5424 55.5753 7.192 55.6241 5.9121 55.9916C4.6322 56.3591 3.4616 57.0341 2.5022 57.9577C1.5429 58.8813 0.823999 60.0254 0.408199 61.2905C-0.00760069 62.5556 -0.107605 63.9031 0.116695 65.2157C0.340995 66.5284 0.883001 67.7662 1.6953 68.8214C2.5077 69.8766 3.5657 70.717 4.7773 71.2696C5.989 71.8221 7.31729 72.07 8.6466 71.9916C9.97599 71.9131 11.266 71.5108 12.4042 70.8195Z"/><path fill="#6366f1" fill-opacity=".94" d="M21.4681 20.6144C20.6886 22.0429 20.3536 23.6716 20.5062 25.2917C20.6588 26.9119 21.292 28.4494 22.3245 29.7072C23.3571 30.965 24.7419 31.8856 26.3012 32.3508C27.8606 32.8161 29.5234 32.8048 31.0763 32.3184C33.0565 31.7019 35.1388 31.4823 37.204 31.6722C39.2692 31.8621 41.2766 32.4576 43.1111 33.4249C44.9456 34.3921 46.5712 35.7119 47.8947 37.3086C49.2182 38.9053 50.2134 40.7475 50.8235 42.7296C51.305 44.2669 52.2305 45.6273 53.4834 46.6398C54.7363 47.6523 56.2607 48.2716 57.8648 48.4197C59.4689 48.5679 61.081 48.2383 62.4981 47.4724C63.9153 46.7065 65.0743 45.5385 65.8292 44.1155C66.5841 42.6924 66.9013 41.0779 66.7407 39.4751C66.5802 37.8722 65.9492 36.3526 64.927 35.1075C63.9049 33.8624 62.5373 32.9475 60.9964 32.4778C59.4555 32.0082 57.8101 32.0048 56.2673 32.4681C52.2843 33.6843 47.9816 33.273 44.3011 31.3244C40.6206 29.3757 37.862 26.0484 36.629 22.0706C36.1736 20.5003 35.2574 19.1028 33.9988 18.0591C32.7402 17.0154 31.1973 16.3735 29.5699 16.2166C27.9424 16.0598 26.3053 16.3951 24.8706 17.1792C23.4358 17.9633 22.2695 19.16 21.5226 20.6144H21.4681Z"/><path fill="#6366f1" fill-opacity=".94" d="M22.802 41.6273C22.7639 40.5416 22.5095 39.4745 22.0538 38.4883C21.5981 37.5021 20.9503 36.6168 20.1481 35.8841C17.1078 33.0416 15.3166 29.1109 15.1661 24.9515C15.0156 20.792 16.5182 16.7421 19.3452 13.6873C20.0858 12.898 20.6621 11.9694 21.0406 10.9554C21.4191 9.94151 21.5922 8.86241 21.5499 7.78091C21.4871 6.44971 21.0994 5.15401 20.4207 4.00711C19.742 2.86011 18.7929 1.89681 17.6563 1.20111C16.5196 0.505306 15.2299 0.0984058 13.8998 0.0157058C12.5696 -0.0668942 11.2395 0.177206 10.0254 0.726906C8.81142 1.27661 7.75032 2.11501 6.93482 3.16911C6.11932 4.22321 5.57433 5.4608 5.34723 6.774C5.12013 8.0872 5.21782 9.43611 5.63192 10.7028C6.04602 11.9696 6.76382 13.1157 7.72282 14.0411C9.24702 15.4489 10.4785 17.1435 11.3467 19.0279C12.2149 20.9124 12.7029 22.9496 12.7825 25.0229C12.8621 27.0962 12.532 29.1649 11.8109 31.1104C11.0897 33.0559 9.99192 34.84 8.58022 36.3605C7.68572 37.3504 7.04752 38.5444 6.72132 39.838C6.39502 41.1317 6.39072 42.4855 6.70872 43.7812C7.02672 45.0769 7.65732 46.2748 8.54542 47.2704C9.43352 48.266 10.5521 49.0288 11.8032 49.4922C13.0543 49.9555 14.3998 50.1052 15.7222 49.9283C17.0445 49.7513 18.3033 49.253 19.3886 48.4769C20.4738 47.7009 21.3523 46.6709 21.9474 45.4768C22.5424 44.2827 22.8359 42.961 22.802 41.6273Z"/></svg>